<?xml version="1.0" encoding="utf-8"?>
<!-- Generator: Adobe Illustrator 27.7.0, SVG Export Plug-In . SVG Version: 6.00 Build 0)  -->
<svg version="1.1" id="Layer_1" xmlns="http://www.w3.org/2000/svg" xmlns:xlink="http://www.w3.org/1999/xlink" x="0px" y="0px"
	 viewBox="0 0 231 280.2" style="enable-background:new 0 0 231 280.2;" xml:space="preserve">
<style type="text/css">
	.st0{fill:#231F20;}
	.st1{fill:#B8BABC;stroke:#231F20;stroke-width:4.23;stroke-miterlimit:10;}
	.st2{fill:#E82C31;stroke:#E82C31;stroke-width:1.22;}
	.st3{fill:#FFFFFF;}
	.st4{fill:#E82C31;}
	.st5{enable-background:new    ;}
</style>
<g>
	<g>
		<polygon class="st0" points="71.7,126.6 53.7,78.6 95.3,57.5 95.3,128.8 		"/>
		<polygon class="st0" points="159.3,126.6 177.3,78.6 135.7,57.5 135.7,128.8 		"/>
	</g>
	<path class="st1" d="M164.3,83.5c0,27.1-22,49.1-49.1,49.1s-49.1-22-49.1-49.1s22-49.1,49.1-49.1S164.3,56.3,164.3,83.5z"/>
	<path class="st2" d="M77.6,114.2c0,0,5.2-11.7,12.9-12.1l7.4,0.7l-5.3,7l0.5,3.5l2.2,1l-2.9,8.4l8.1,2.2l3.6,1.7l10.8,1.5l0.7-4.6
		v-2.2l1.1-0.7l3.2-0.1l0.5-12.3l5.4,0.3c0,0,12.6,6.5,13,16.8c0,0-11.8,8.8-37,4.9C101.7,130.1,89.5,126.5,77.6,114.2L77.6,114.2z"
		/>
	<g>
		<path class="st0" d="M155.7,85.8c0.8,0.8-0.6,1.5-1.3,1.3c-2.4-0.7-4.5-1.8-6.8-2.8c-0.8-0.3-2.3-1.1-3.2-1
			c-1.1,0.1,0.3,1.6,0.6,1.8c1.8,1.6,3.8,3,5.8,4.3c0.7,0.5,1.6,1,1.7,2c-0.4,0.7-1.7,0-2.2-0.3c-2.2-1.1-4.3-2.7-6.6-3.8
			c-0.6,1.1-0.7,2.3-1.2,3.3c-0.3,0.5-2.8,4.5-6.1,5.7c-0.6,0.3-5.6,2-9,2.1c-0.7,0.1-1.7-0.1-1.8,0.6c-0.1,0.8-0.4,1.6-0.7,2.3
			c-0.6,1.2-1.4,2.3-2.5,3.2c-0.4,0.3-1.3,0.6-1.1,1.1c0.1,0.3,0.2,0.6,0.3,1c0,0,4.5,0.1,9.1,2.6c5,2.8,10.2,10.3,10.5,13
			c0.1,0.9,0.6,4.1-0.2,4.5c-0.5,0.3-0.9,0.2-1.4,0.5c-0.9,0.4-1-1.1-1.1-1.9c0.2-1.4-1.7-8-7.6-11.9c-1.2-1.1-6.1-4.5-9.5-4
			c-0.2,2.1,0,4.2,0.2,6.3c0.1,0.9,0.3,4.7,0.2,5.8c-0.6,1.3-2.7,1.1-3.8,0.6c-0.1,0.6,0.3,3.1,0.4,3.7c0.1,1.1,0.5,3-0.3,3.9
			c-0.6,0.7-1.9,0.8-2.7,0.5c-1.4-0.4-2.8-0.7-4.2-1c-1.1-0.2-2.3-0.5-3.4-0.5c-0.7,0-1.3,0.2-2,0.2c-0.7-0.1-1.3-0.3-1.9-0.4
			c-0.6-0.4-0.9-1-1.5-1.3c-0.6-0.3-1.3-0.4-1.9-0.5c-1.6-0.2-3.3-0.8-4.9-1.2c-1.2-0.3-2.4-1.1-3.4-1.9c-1.1-0.8-1.7-1.6-1.5-3.1
			c0.2-1,1.4-2.5,2.1-3.3c0.3-0.4,1.5-1.7,1.1-2.3c-0.3-0.4-1.9-1.6-2.3-1.9c-0.9-0.7-2.6-1.2-1.5-2.8c0.8-1.2,1.9-2.1,2.8-3.2
			c0.9-1.1,2.2-2,2.9-3.2c-2.2-1.1-5.6-0.3-7.6,0.6c-2.2,0.9-4.7,2.4-6.2,4.1c-1.6,1.8-3.6,5.2-4.3,7.6c-0.6-0.2-2.3-1.3-2.4-2
			c-0.2-0.7,0.8-1.8,1.1-2.4c0.4-1,0.9-1.8,1.5-2.7c1.5-2.2,3.5-3.8,5.6-5.3c5.7-3.5,12.9-3,13.9-2.4c0,0,0.3-0.4,0.3-0.5
			c0-0.1-0.2-0.3-0.3-0.4c-0.4-0.4-2.2-1.6-2.5-2.5c-0.5-0.9-0.9-1.7-0.4-2.8c1-1.2,2.4-2.1,3.8-2.6c0.4-0.2,0.8-0.3,1.2-0.4
			c0.6-0.2,0.5-0.3,0.3-0.9c-0.2-0.8-0.8-1.5-1.4-2.1c-1.1-1.2-2.5-2.2-3.7-3.3c-2.6-1.9-5.1-5.7-5.3-6.4c-0.3-0.7-0.8-1.3-1.1-2.1
			c-1.9-0.1-3.8,0.1-5.7,0.2c-0.9,0-1.8,0.1-2.8-0.1c-0.2-0.1-0.3-0.2-0.4-0.7c-0.1-0.4,0.1-0.7,0.3-0.7c0.7-0.1,4.2-0.9,5.2-1.1
			c0.9-0.1,1.7-0.4,2.6-0.7c0.6-0.2,0.8-0.1,1-0.7c0.1-0.4,0.2-0.8,0.3-1.2c-1.4-0.6-3.2-0.7-4.8-0.7c-0.5,0-2.4-0.1-4.1-0.2
			c-1.3,0-2.4-1.8-0.7-2c3.1-0.4,6.2-0.2,9.3,0c0.7,0,2,0.1,2.6-0.4c0.3-0.3,0.8-1.1,1-1.5c0.2-0.4-0.7-0.7-1-0.8
			c-0.8-0.2-1.7-0.4-2.6-0.7c-1.8-0.4-3.8-0.6-5.4-1.3c-0.5-0.2-1.9-0.7-1.6-1.3c0.3-0.7,1.2-0.8,1.9-0.7c0.9,0,1.7,0.2,2.6,0.4
			c0.8,0.1,6.2,1,6.8,1c0.7,0,1.3,0.4,1.8,0.1c0.5-0.3,0.6-0.2,0.5-0.8c-0.1-0.5-0.1-1.1-0.2-1.6c-0.1-1.7,0.1-3.3,0.2-5
			c0.1-1.5,0.5-3.7,1.9-4.5c0.6-0.3,1.3-0.4,2.1-0.5c0.8,0,1.6,0.2,2.4,0.4c1.4,0.3,3.7,1.7,4.6,0.8c1.1-1.2,3.3-2.4,4.7-3.2
			c1.1-0.7-0.1-2.5-0.6-3.8c-3-6.9-6.8-14.2-12.4-19.4c-0.9-0.8-2.2-2.2-3.4-2.2c-1.7,0.1-3.4,1.8-4.6,2.8c-1.3,1-2.6,2.1-3.9,3.1
			c-1.3,1.1-2.8,2.3-4.2,3.2c-1.3,0.7-2.6,1.4-4.1,1.9c-0.7,0.2-5,1.2-4.5-0.2c1.1-2.9,2.3-5.7,3.9-8.3c1.9-3,3.7-6.1,6.7-8.3
			c1.3-1,2.6-2.1,4-3c0.8-0.5,3.9-2.5,4.7-2.7c6.4-2.9,10.5-0.2,11.2,0.1c0.8,0.4,4.7,4.2,5.8,5.8c1.1,1.5,2.2,2.9,3,4.6
			c0.8,1.6,1.3,3.3,2,5c0.7,1.8,0.9,3.7,1.7,5.4c0.6,1.4,2.5,11.5,2.9,14.3c1.5-0.2,2.8,0,4.3,0c2.1,0,4,1.2,4.8,1.3
			c0-0.7-0.8-3.8-0.9-4.6c-0.3-2-0.6-4-0.8-6.1c-0.3-4,0.3-7.9,0.7-11.8c0.3-3.5,1.4-7.1,2.4-10.5c0.5-1.7,1.2-3.3,1.8-4.9
			c0.5-1.4,1.2-3,2-4.3c0.9-1.5,1.6-2.8,2.8-4.1c0.8-0.8,1.7-3.7,3.3-2.5c0.7,0.5,0.6,1.4,0.9,2.1c0.4,0.9,0.7,1.8,0.9,2.8
			c0.2,0.9,0.3,1.7,0.5,2.6c0.1,0.8,0.2,1.6,0.3,2.3c0.4,1.7,1.8,16.6,1.1,22.5c-0.1,2-2,10.2-2.3,11.3c-0.6,1.9-3.2,10-3.7,10.7
			l0,0c0.1,0.2,2.4,4,3.2,6.1c0.2,0.5,0.4,1.1,0.6,1.6c0.2,0.7,0.1,1.3,0.8,1.4c1.1,0.3,4.1,1.5,4.4,2c0.3,0.4,0.5,0.8,0.7,1.3
			c0.4,1.1,0,1.9-0.5,2.9c-0.6,1.2-1.2,2.3-1.9,3.3c-0.3,0.4-2,1.8-1.5,2.3c0.5,0.7,2.3,0.6,3.1,0.8c1.3,0.3,6.1,1.9,7.3,2.3
			c0.6,0.2,1.8,0.6,2.2,1.1c0.4,0.6-0.8,1.7-1.2,1.5c-0.9-0.5-2.1-0.5-3.1-0.6c-1.3-0.2-6-1.4-7.2-1.4c-0.1,0.2,0.9,1.1,1.4,1.3
			c0.9,0.3,6.9,3.6,7.9,4C153.8,84.7,155,85.2,155.7,85.8L155.7,85.8z M143.1,68.9c0-0.5,0.5-1.7-0.9-2.2c-0.1,0-0.1-0.1-0.2-0.1
			c0,0,0,0-0.1,0c-1-0.4-1.9-0.7-2.9-1c-0.6-0.2-3-1-3.6-1.1c-1.8-0.5-3.6-1.3-5.5-1.5c-2.2-0.4-5-0.8-5.1,2.4
			c-0.3,2.6,0.2,5.5,0.6,6.3c0.6,1.1,1,1.9,2.1,2.7c0.8,0.6,1.8,1,2.7,1.3c2.1,0.8,4.4,1.2,6.6,0.5c1.9-0.6,3.7-2.2,4.8-3.9
			C142.3,71.3,143,69.9,143.1,68.9L143.1,68.9z M140.8,87.8c0.8-1.9,1-4,0.6-6c-0.1-0.8-0.4-1.5-0.6-2.3c-0.1-0.7-0.3-1.4-0.9-1.8
			c-0.7,0.2-2.9,1.9-7,1.7c-2.2-0.1-4.4-1.5-6.1-2.8c-2.3-1.8-3.5-4.4-4.1-7.3c-0.3-1.4-0.6-2.8-0.8-4.2c-0.2-1.1-1.5-1.7-2.5-1.9
			c-1.5-0.3-2.5,0.5-3.4,1.7c-0.8,1.2-1.6,2.3-2.7,3.3c-2,1.8-4.9,3.2-7.7,3.2c-1.3,0-3.1-0.7-4.3-1.2c-1.2-0.4-2.4-1.2-3.4-2.1
			c-0.4-0.4-0.8-1.1-1.4-1.3c-0.6,0.3-3.4,3-3.8,4.1c-0.6,1.3-1.4,3.3-1.1,4.8c0.3,1.8,0.8,3.1,1.8,4.6c1.9,2.8,4.6,4.7,6.7,7.2
			c1,1.2,1.3,2.5,1.7,4.1c0.4,1.7,1,3.2,1.9,4.7c0.9,1.4,2.9,2.1,4.4,2.8c1.3,0.6,3.3,0.3,4.7,0.1c1.8-0.3,3.6-1.2,5.3-1.9
			c1.4-0.6,2.5-1.7,3.9-2.2c1.8-0.6,3.5,0.1,5.4,0.2c1.8,0.1,3.6-0.6,5.3-0.9C136.6,93.5,139.3,91.2,140.8,87.8L140.8,87.8z
			 M140.5,32.6c0.1-1.1,0.3-5.4,0.3-6.4c0-1.2-0.8-8.4-0.9-9.4c-0.1-1-1-5.4-1-6.6c-0.2,0-0.9,1.3-1,1.4c-0.6,0.9-1.1,2.1-2,2.6
			c-1.8,1.1-0.5-4.4-0.5-4.9c0,0,0-0.1,0,0v0c-0.1,0.5-1.5,2.9-1.9,3.7c-0.6,1.3-3.5,8.7-3.8,11.1c-0.4,2.8-1.4,10-0.4,16
			c0.2,1.3,0.4,2.7,0.5,4c0.1,0.7,1.1,6,1.5,7.2c0.1,0.5,0.7,1.6,0,1.7c-0.4,0.1-0.7-0.3-1-0.5c-2.3-1.1-4.9-2-7.4-2.3
			c-1.5-0.2-6.9,0-7.4-0.2c1.5-1.7,0.9-3.3,0.9-3.8c-0.1-0.8-1.4-7.5-1.5-8.1c-0.2-1.2-1.9-6.9-2.3-8.5c-0.4-1.5-3-7.5-4-8.7
			c-0.4-0.5-2-2.7-2.5-3.2c-1.7-1.7-3.8-4.3-6.3-4.6c-2.9-0.3-6,1.2-8.4,2.6c-0.7,0.4-5.5,3.9-6.2,4.8c-1.5,2-3.6,3.8-4.6,6.2
			c1.6-0.4,2.7-2.1,4.3-2.8c1.1-0.5,1.1,0.2,0.7,1.1c-0.3,0.7-0.7,1.4-0.7,2.2c0.9,0,1.7-1.2,2.5-1.6c1-0.5,1.8-1.1,2.7-1.8
			c1.6-1.1,3.6-1.8,5.4-2.5c2.1-0.8,4.1-1,6.2-0.7c0.7,0.1,1.2,0.1,1.6,0.6c0.3,0.4,2.3,2.8,2.8,3.7c1.1,1.9,1.8,3.9,2.5,6
			c0.3,0.8,1.1,1.9,0.9,2.8c-0.2,1-1.3-0.6-1.6-0.8c-0.3-0.3-4.7-5.3-5.4-5.9c-0.2-0.2-2.3-1.2-2.3-1.2c0.1,0.4,1.9,2.5,2.2,3
			c0.7,1.2,1.8,2.2,2.4,3.5c1.5,2.8,4.6,6.4,6.8,12.7c0.6,1.3,1.5,2.4,2,3.7c0.8,2-0.6,1.8-1.8,2.7c-0.6,0.5-3.2,2.1-3.5,2.7
			c1.2,0.5,6,2.3,7.2,2.6c1.2,0.3,2.5,1.1,3.4,1.9c0.3,0.2,1.2,1.1,1.5,1.2c0.5,0.2,1.1,0.2,1.7,0.4c1.1,0.4,2.4-0.4,3.7-0.3
			c1.6,0.2,3.1,0.5,4.6,0.8c1.5,0.3,6.9,1.8,8.1,2.3c-0.5-2.4-1.5-4.7-2.9-6.7c-0.4-0.6-0.8-0.9-1.3-1.4c-0.5-0.4,0.1-1,0.3-1.4
			c0.4-0.9,0.6-1.9,1-2.7c2.3-4.8,3.3-10.4,4.3-15.6C140.1,34.5,140.4,33.3,140.5,32.6L140.5,32.6z M120.3,102.4
			c0.8-0.7,1.9-2.5,1.9-3.6c-0.7,0-2.8,0.8-3.7,1.3c-3.7,1.5-7.8,2.1-10.1,1.7c-0.8-0.2-1.9-0.7-2.8-1.1c-0.4-0.2-0.8-0.4-1.1-0.6
			c-1.2-0.7-4.3-5.1-4.6-5.6c-1-0.2-2.5,1.5-3.2,1.7c0.4,1.2,1.5,2.6,2.6,3.2c1,0.6,1,0.9,2.1,1.4c0.2,0.7-1.9,2.1-2.2,2.7
			c-0.4,0.9,0.8,1.2,2.3,1.5c1.1,0.3,2.6-0.3,3.3-1.1c0.4-0.4,0.4-0.9,0.3-1.4c-0.1-0.3-0.2-1.2,0.2-1.2c0.1,0,0.2,0,0.3,0.1
			c0.3,0.2,0.7,0.7,1,1c0.4,0.5,0.9,0.9,1.5,1.2c0.7,0.5,2.3,0.8,3-0.1c0.3-0.4,1-0.9,1.1-0.1c0.1,0.8,0.1,1.1,0.5,1.7
			c0.7,1,1.4,1.7,2.5,2.4c0.8,0.5,2.1,0.1,2.1-0.9c0-0.8-0.5-1.3-1.1-1.7c-0.7-0.4-0.9-0.6-1.5-1.2c-1.1-0.9,1.4-0.9,1.9-0.9
			C117.6,103,119.4,103.2,120.3,102.4L120.3,102.4z M119.3,119c0.2-0.4-0.3-3.4-0.3-4c0.1-1.3-0.3-3.4-0.3-4.7c0,0-2.5,0.1-3.4-0.1
			c-0.6-0.1-2.3-1.3-2.5-1.2c0.3,1.8-0.1,4.4-0.1,4.9c-0.2,3.2-2.4,7.4-3.2,8.7c-0.6,1.1-1.9,1.8-2.4,3c0.1-0.1,3.6,0.5,4.1,0.6
			c1.5,0.4,4.1,1.4,4.3,0.6c0.6-1.2,0.1-2.4,0-3.7c-0.1-1.1-0.7-2.1-0.8-3.2c-0.1-0.8,0-0.8,0.8-0.8c0.4,0,0.8,0.1,1.3,0.1
			C117.3,119.4,119.1,119.8,119.3,119L119.3,119z M111.8,66c1.2-1.1,5-5.7,2.6-6.9c-1.1-0.9-2.5-1.6-3-1.8c-1.5-0.5-2.9-0.9-4.4-1.3
			c-1.5-0.4-3-1-4.5-1.3c-1-0.2-2.3-0.3-3.3-0.2l0,0c0,0-0.1,0-0.1,0c-0.3,0.1-0.3,0.1-0.2,0.1c-1.1,0.7-1.4,2.8-1.5,4
			c-0.1,1.5,0.1,2.8,0.5,4.3c0.4,1.5,1.2,2.9,2.5,3.9c0.6,0.4,4.2,2.8,7.8,1.4C109.6,67.9,110.8,67,111.8,66L111.8,66z M111.3,110.2
			c0-0.9-0.1-2.3-0.2-3.2c0,0-1.9,0.1-2.3,0c-0.6-0.1-2-1-2.3-0.4c-0.3,0.7-0.6,1.4-1,2.2c-0.6,1.3-1.1,2.7-1.2,4.2
			c-0.2,1.8-0.5,3.4-0.3,5.2c0.2,1.9,0.9,3.8,0.9,5.7c1.5-0.5,2.5-2,3.3-3.3c0.9-1.4,1.6-3.1,2.1-4.6
			C110.9,114.1,111.3,112.2,111.3,110.2z M103.6,109.6c0.3-0.7,1.2-2.8,1.3-3.3c-0.1,0-2.6,1-3.2,1.2c-0.9,0.3-1.9,0.2-2.8-0.1
			c-0.4-0.1-0.7-0.3-1.1-0.5c-0.5-0.3-0.5,0-0.9,0.4c-0.5,0.8-1.1,1.5-1.6,2.3c-0.4,0.6-1,1.2-1.1,1.9c-0.2,1.1,1.8,1.6,2.6,1.9
			c0.9,0.3,1.5,0.4,1.1,1.5c-0.2,0.6-0.8,0.9-1.2,1.3c-0.9,0.9-2.4,2.6-2.5,3.9c-0.1,1.6,2.9,2.6,4.1,3c0.9,0.3,1.9,0.5,2.7,0.7
			c0.8,0.2,1.4,0.7,2.2,0.9c-0.1-0.9-0.9-4.3-0.9-5.2C101.7,115.2,103.3,110.4,103.6,109.6L103.6,109.6z"/>
		<path class="st3" d="M141.9,66.6c0,0,0.4,0.2,0.3,0.1c1.3,0.5,0.9,1.6,0.9,2.2c-0.1,1.1-0.8,2.5-1.4,3.4c-1.1,1.7-2.8,3.3-4.8,3.9
			c-2.2,0.7-4.6,0.3-6.6-0.5c-0.9-0.4-1.9-0.7-2.7-1.3c-1-0.7-1.4-1.6-2.1-2.7c-0.5-0.9-0.9-3.8-0.6-6.3c0.1-3.2,2.9-2.8,5.1-2.4
			c1.9,0.2,3.7,1.1,5.5,1.5c0.6,0.2,3,0.9,3.6,1.1C140,65.9,141,66.2,141.9,66.6C142,66.6,141.9,66.6,141.9,66.6L141.9,66.6z
			 M136.1,70c0.4-1.8-1.6-3.3-3.1-3.8c-1.1-0.4-2.5-0.7-3.6-0.3c-0.5,0.2-1,0.5-1.3,1c0.2,0.3,0.6,0.7,0.7,0.8l0,0
			c0.1,1.1-0.2,2,0.7,2.9c0.6,0.6,1.5,0.8,2.3,0.8c0.7-0.2,1.5,0,2.3-0.8C134.8,70.4,135.8,71.3,136.1,70L136.1,70z"/>
		<path class="st3" d="M142.2,66.7c0.1,0.1-0.3-0.1-0.3-0.1c0,0,0,0,0.1,0c0,0,0,0,0.1,0C142.1,66.6,142.2,66.7,142.2,66.7
			L142.2,66.7z"/>
		<path class="st3" d="M142,66.6C142,66.6,142,66.6,142,66.6C142,66.6,142,66.6,142,66.6z"/>
		<path class="st3" d="M141.4,81.8c0.4,2,0.2,4.1-0.6,6c-1.5,3.5-4.2,5.7-7.9,6.5c-1.7,0.4-3.5,1-5.3,0.9c-1.8-0.1-3.5-0.8-5.4-0.2
			c-1.5,0.5-2.5,1.6-3.9,2.2c-1.7,0.7-3.5,1.6-5.3,1.9c-1.4,0.2-3.4,0.5-4.7-0.1c-1.4-0.7-3.5-1.4-4.4-2.8c-1-1.5-1.5-3-1.9-4.7
			c-0.4-1.5-0.7-2.9-1.7-4.1c-2.2-2.5-4.8-4.4-6.7-7.2c-1-1.5-1.5-2.8-1.8-4.6c-0.3-1.5,0.5-3.5,1.1-4.8c0.5-1.1,3.2-3.7,3.8-4.1
			c0.6,0.2,0.9,0.9,1.4,1.3c1,0.9,2.2,1.7,3.4,2.1c1.3,0.4,3,1.1,4.3,1.2c2.7,0,5.7-1.4,7.7-3.2c1.1-1,1.9-2.1,2.7-3.3
			c0.8-1.2,1.9-2,3.4-1.7c1,0.2,2.3,0.8,2.5,1.9c0.2,1.4,0.6,2.8,0.8,4.2c0.6,2.8,1.8,5.5,4.1,7.3c1.7,1.3,3.9,2.7,6.1,2.8
			c4.1,0.2,6.3-1.5,7-1.7c0.6,0.4,0.8,1.2,0.9,1.8C141,80.2,141.3,81,141.4,81.8L141.4,81.8z M130,86.6c0.1-0.9,0.1-1.8-0.1-2.7
			c-0.4-0.4-1.7-1.3-2.2-0.9c-0.5,0.4-0.3,1.4-1.2,1.5c-0.7,0.2-1.3-0.2-2.2-0.4c-1.9-0.4-3.3-1.8-4.2-2.8c-1.2-1.2-2.3-2.7-2.8-4.4
			c-0.4-2.4,1.1-4.1,1.1-4.1c0.6,0.1,0.9,0.8,1.5,0.8c0.5,0,0.9-0.6,1.1-1c0.6-1.3-0.4-2.3-1.3-3.2c-1.1-1.1-2.4-1.4-3.8-0.8
			c-0.8,0.3-2.8,1.9-1.7,2.8c1,0.8,2.2,0.4,1.6,2.1c-0.5,1.3-1.7,2.1-2.7,2.8c-2.3,1.6-5.4,2.3-8.1,1.5c-0.8-0.2-1.8-0.6-2-1.5
			c-0.1-0.5-0.5-1.6-1.2-1.2c-0.8,0.5-1.8,2.6-1.9,3.5c-0.2,1.2,1.5,0.6,2.2,0.9s1,0.5,1.6,1c1.3,1,1.9,2.3,2.2,3.9
			c0.3,1.8-0.2,3.7,0.8,5.3c0.9,1.4,2.5,2.6,4.1,2.9c2.8,0.8,6.4-0.8,6.7-1.2c1.8-1.1,5.7-4.2,6.3-4.7c1-0.6,3.1-1.1,3.8-0.1
			c0.4,0.5,0.7,1.1,1.4,1.3C129.9,88.4,129.9,87.4,130,86.6L130,86.6z"/>
		<path class="st3" d="M140.8,26.2c0,1-0.1,5.3-0.3,6.4c-0.1,0.7-0.4,1.8-0.6,2.4c-1.1,5.2-2,10.8-4.3,15.6c-0.4,0.9-0.6,1.8-1,2.7
			c-0.2,0.5-0.7,1-0.3,1.4c0.5,0.5,0.9,0.8,1.3,1.4c1.3,2,2.4,4.3,2.9,6.7c-1.2-0.5-6.6-2.1-8.1-2.3c-1.6-0.3-3-0.6-4.6-0.8
			c-1.3-0.1-2.5,0.8-3.7,0.3c-0.5-0.2-1.1-0.2-1.7-0.4c-0.3-0.1-1.2-1-1.5-1.2c-1-0.8-2.2-1.5-3.4-1.9c-1.2-0.3-5.9-2.2-7.2-2.6
			c0.3-0.6,2.8-2.3,3.5-2.7c1.2-0.9,2.6-0.8,1.8-2.7c-0.5-1.3-1.4-2.4-2-3.7c-2.2-6.3-5.3-9.9-6.8-12.7c-0.6-1.2-1.7-2.3-2.4-3.5
			c-0.3-0.5-2.2-2.5-2.2-3c0,0,2,1,2.3,1.2c0.8,0.6,5.1,5.6,5.4,5.9c0.2,0.2,1.4,1.8,1.6,0.8c0.1-0.9-0.7-2-0.9-2.8
			c-0.7-2-1.4-4.1-2.5-6c-0.6-1-2.5-3.3-2.8-3.7c-0.4-0.5-0.9-0.5-1.6-0.6c-2.2-0.3-4.2-0.1-6.2,0.7c-1.8,0.7-3.8,1.4-5.4,2.5
			c-0.9,0.6-1.8,1.3-2.7,1.8c-0.8,0.4-1.6,1.6-2.5,1.6c-0.1-0.8,0.3-1.5,0.7-2.2c0.4-0.8,0.5-1.5-0.7-1.1c-1.5,0.6-2.7,2.4-4.3,2.8
			c1-2.4,3.1-4.2,4.6-6.2c0.7-0.9,5.4-4.4,6.2-4.8c2.4-1.4,5.5-2.9,8.4-2.6c2.5,0.3,4.6,2.9,6.3,4.6c0.5,0.5,2.1,2.7,2.5,3.2
			c1.1,1.2,3.6,7.3,4,8.7c0.4,1.6,2.1,7.2,2.3,8.5c0.1,0.6,1.5,7.3,1.5,8.1c0,0.5,0.6,2.1-0.9,3.8c0.5,0.2,5.8,0,7.4,0.2
			c2.5,0.3,5.1,1.2,7.4,2.3c0.3,0.2,0.6,0.6,1,0.5c0.7-0.1,0.1-1.2,0-1.7c-0.4-1.2-1.4-6.5-1.5-7.2c-0.1-1.3-0.3-2.7-0.5-4
			c-1.1-6,0-13.2,0.4-16c0.4-2.4,3.2-9.9,3.8-11.1c0.3-0.7,1.8-3.2,1.9-3.7c0,0,0,0,0,0c0,0.5-1.3,6,0.5,4.9c0.9-0.6,1.4-1.8,2-2.6
			c0.1-0.2,0.9-1.5,1-1.4c0.1,1.2,0.9,5.6,1,6.6C140,17.8,140.7,25,140.8,26.2L140.8,26.2z"/>
		<path class="st0" d="M128.8,67.6c-0.1-0.1-0.5-0.5-0.7-0.8c0.3-0.5,0.8-0.8,1.3-1c1.1-0.4,2.5-0.2,3.6,0.3
			c1.5,0.6,3.5,2.1,3.1,3.8c-0.3,1.2-1.3,0.4-2,0.4c-0.8,0.8-1.7,0.6-2.3,0.8c-0.9,0.1-1.7-0.2-2.3-0.8
			C128.6,69.6,128.9,68.7,128.8,67.6L128.8,67.6L128.8,67.6z"/>
		<path class="st3" d="M135.3,9.4C135.4,9.4,135.4,9.4,135.3,9.4C135.3,9.4,135.3,9.4,135.3,9.4z"/>
		<path class="st3" d="M135.3,9.4C135.3,9.4,135.3,9.4,135.3,9.4C135.3,9.4,135.3,9.4,135.3,9.4C135.3,9.4,135.3,9.4,135.3,9.4
			L135.3,9.4z"/>
		<path class="st0" d="M118.4,72.8c0,0-1.5,1.7-1.1,4.1c0.5,1.7,1.6,3.1,2.8,4.4c0.9,1,2.3,2.4,4.2,2.8c0.9,0.2,1.4,0.6,2.2,0.4
			c0.8-0.2,0.6-1.1,1.2-1.5c0.5-0.4,1.8,0.6,2.2,0.9c0.3,0.9,0.2,1.8,0.1,2.7c-0.1,0.8-0.1,1.8-1.2,1.5c-0.6-0.2-1-0.8-1.3-1.3
			c-0.8-1-2.9-0.5-3.8,0.1c-0.7,0.4-4.6,3.6-6.3,4.7c-0.4,0.4-4,2-6.7,1.2c-1.6-0.4-3.2-1.5-4.1-2.9c-1.1-1.6-0.6-3.5-0.8-5.3
			c-0.2-1.6-0.9-2.9-2.2-3.9c-0.6-0.5-1-0.7-1.6-1c-0.6-0.3-2.3,0.3-2.2-0.9c0.1-1,1.2-3.1,1.9-3.5c0.7-0.4,1.1,0.7,1.2,1.2
			c0.2,0.9,1.2,1.3,2,1.5c2.8,0.8,5.8,0.1,8.1-1.5c1.1-0.7,2.2-1.5,2.7-2.8c0.7-1.7-0.6-1.3-1.6-2.1c-1.2-0.9,0.9-2.5,1.7-2.8
			c1.4-0.6,2.7-0.3,3.8,0.8c0.9,0.8,1.8,1.8,1.3,3.2c-0.2,0.4-0.6,1-1.1,1C119.3,73.6,119,72.9,118.4,72.8L118.4,72.8z M109.6,79.8
			L109.6,79.8C109.5,79.8,109.5,79.9,109.6,79.8l-0.2,0c0,0-0.1,0-0.1,0l-0.1,0h0c0,0-0.1,0-0.1,0H109l0,0h0c-1.2,1-0.6,3.7,0.2,4.7
			c0.4,0.6,1,1.3,1.6,1.7c0.9,0.5,1.2-0.7,1.4-1.4c0.7-2,1.2-4.2,1.7-6.3c0,0.1-1.8,0.7-2,0.8C111.1,79.6,110.2,79.8,109.6,79.8
			L109.6,79.8z M118.1,86.7c1.7-0.7,2.3-2.4,2.3-2.7c-0.2-0.4-1-0.7-1.3-1c-0.4-0.3-0.8-0.7-1.2-1c-0.8-0.7-1.5-1.5-1.9-2.6
			c-0.4,0.4-1.1,2.8-1.2,3.8c-0.3,1.2-1.2,2.9-0.5,3.7C115.1,88,117,87.1,118.1,86.7L118.1,86.7z"/>
		<path class="st3" d="M122.2,98.8c0,1.1-1.1,3-1.9,3.6c-0.9,0.8-2.7,0.5-3.9,0.6c-0.4,0-3,0-1.9,0.9c0.7,0.5,0.8,0.7,1.5,1.2
			c0.7,0.4,1.1,0.9,1.1,1.7c0,1-1.3,1.4-2.1,0.9c-1.1-0.7-1.8-1.4-2.5-2.4c-0.4-0.6-0.4-1-0.5-1.7c-0.2-0.8-0.8-0.3-1.1,0.1
			c-0.7,0.8-2.2,0.5-3,0.1c-0.6-0.4-1.1-0.8-1.5-1.2c-0.3-0.3-0.6-0.8-1-1c-0.1-0.1-0.2-0.1-0.3-0.1l0.4-0.7c0.9,0.5,2,1,2.8,1.1
			c2.3,0.5,6.4-0.2,10.1-1.7C119.4,99.7,121.5,98.9,122.2,98.8L122.2,98.8z"/>
		<path class="st3" d="M120.3,84c0,0.3-0.5,1.9-2.3,2.7c-1.1,0.4-3,1.3-3.9,0.2c-0.7-0.8,0.2-2.5,0.5-3.7c0.2-1,0.8-3.4,1.2-3.8
			c0.4,1,1.1,1.8,1.9,2.6c0.4,0.3,0.8,0.7,1.2,1C119.4,83.3,120.2,83.6,120.3,84L120.3,84z"/>
		<path class="st4" d="M119.1,115c0,0.7,0.4,3.6,0.3,4c-0.3,0.8-2.1,0.4-2.7,0.3c-0.4-0.1-0.8-0.1-1.3-0.1c-0.8,0-0.9,0.1-0.8,0.8
			c0.2,1.1,0.8,2.1,0.8,3.2c0.1,1.3,0.6,2.5,0,3.7c-0.2,0.7-2.8-0.2-4.3-0.6c-0.4-0.1-4-0.7-4.1-0.6c0.6-1.1,1.8-1.9,2.4-3
			c0.8-1.4,3-5.6,3.2-8.7c0-0.5,0.4-3.1,0.1-4.9c0.2-0.1,1.9,1.1,2.5,1.2c1,0.2,3.4,0.1,3.4,0.1C118.8,111.6,119.1,113.8,119.1,115
			L119.1,115z"/>
		<path class="st3" d="M114.4,59.1c2.5,1.3-1.4,5.8-2.6,6.9c-1.1,1.1-2.2,1.9-3.7,2.2c-3.6,1.4-7.2-1-7.8-1.4c-1.3-1-2-2.3-2.5-3.9
			c-0.4-1.4-0.6-2.8-0.5-4.3c0.1-1.1,0.4-3.3,1.5-4l0,0c0.1,0,0.4-0.1,0.3-0.1c1-0.2,2.3-0.1,3.3,0.2c1.5,0.3,3,0.9,4.5,1.3
			c1.5,0.4,2.9,0.8,4.4,1.3C111.9,57.5,113.3,58.2,114.4,59.1L114.4,59.1z M111.6,62c1.8-1.2-2.6-3.1-3.5-3.2
			c-1.5-0.2-4.2,0.3-4.5,2.2c0,0,0.1,0,0.1,0c1.1,0.5,1.6,1.3,2.1,2.4c0.7,0.5,1.6,0.5,2.4,0.5c0.7,0,1.2-0.5,1.6-1
			C110.4,62.3,111,62.4,111.6,62L111.6,62z"/>
		<path class="st3" d="M113.7,78.7c-0.5,2.1-0.9,4.2-1.7,6.3c-0.2,0.6-0.4,1.9-1.4,1.4c-0.6-0.3-1.2-1.1-1.6-1.7
			c-0.7-1.1-1.3-3.7-0.2-4.7h0c0,0,0,0,0,0s0,0,0,0c0,0,0,0,0.1,0c0,0,0.1,0,0.1,0c0,0,0,0,0.1,0c0.1,0,0.2,0,0.3,0c0,0,0,0,0,0
			c0,0,0,0,0.1,0c0,0,0,0,0,0c0.6-0.1,1.6-0.2,2.1-0.4C112,79.4,113.7,78.8,113.7,78.7L113.7,78.7z"/>
		<path class="st0" d="M103.7,61C103.7,61,103.6,60.9,103.7,61c0.2-1.9,3-2.4,4.4-2.2c0.9,0.1,5.3,2,3.5,3.2
			c-0.6,0.4-1.2,0.3-1.8,0.9c-0.5,0.5-0.9,0.9-1.6,1c-0.8,0-1.7,0-2.4-0.5C105.3,62.3,104.8,61.5,103.7,61L103.7,61z"/>
		<path class="st3" d="M111.1,107.1c0.2,0.9,0.2,2.2,0.2,3.2c0,1.9-0.4,3.8-1,5.7c-0.5,1.6-1.2,3.2-2.1,4.6
			c-0.8,1.3-1.9,2.8-3.3,3.3c0.2-0.1,0-0.4,0,0c0-1.9-0.7-3.8-0.9-5.7c-0.2-1.8,0.1-3.4,0.3-5.2c0.2-1.5,0.6-2.8,1.2-4.2
			c0.3-0.7,0.6-1.4,1-2.2c0.3-0.6,1.7,0.2,2.3,0.4C109.2,107.1,111.1,107,111.1,107.1z"/>
		<path class="st3" d="M109.6,79.8C109.6,79.8,109.5,79.8,109.6,79.8L109.6,79.8z"/>
		<path class="st3" d="M109.4,79.9C109.4,79.9,109.4,79.9,109.4,79.9c-0.1,0-0.2,0-0.2,0c0,0,0.1,0,0.1,0
			C109.3,79.9,109.4,79.9,109.4,79.9L109.4,79.9z"/>
		<path class="st3" d="M109.3,79.9C109.3,79.9,109.2,79.9,109.3,79.9c-0.1,0-0.1,0-0.1,0L109.3,79.9L109.3,79.9z"/>
		<path class="st3" d="M109.1,79.9L109.1,79.9C109.1,79.9,109.1,79.9,109.1,79.9L109.1,79.9L109.1,79.9L109.1,79.9z"/>
		<path class="st3" d="M109.1,79.9L109.1,79.9L109.1,79.9C109.1,79.9,109.1,79.9,109.1,79.9z"/>
		<path class="st3" d="M109,79.9C109,79.9,109,79.9,109,79.9L109,79.9C109,79.9,109,79.9,109,79.9z"/>
		<path class="st3" d="M109,79.9L109,79.9C109,79.9,109,79.9,109,79.9L109,79.9z"/>
		<path class="st3" d="M105.7,100.7l-0.4,0.7c-0.4,0-0.3,0.9-0.2,1.2c0.2,0.5,0.1,1-0.3,1.4c-0.8,0.9-2.2,1.4-3.3,1.1
			c-1.5-0.3-2.7-0.6-2.3-1.5c0.3-0.7,2.4-2,2.2-2.7c-1.1-0.6-1-0.8-2.1-1.4c-1.1-0.6-2.1-2-2.6-3.2c0.7-0.2,2.2-1.8,3.2-1.7
			c0.3,0.4,3.4,4.9,4.6,5.6C104.9,100.2,105.2,100.4,105.7,100.7z"/>
		<path class="st3" d="M104.9,123.9C104.9,123.4,105.1,123.8,104.9,123.9L104.9,123.9z"/>
		<path class="st4" d="M104.9,106.3c-0.1,0.6-1.1,2.7-1.3,3.3c-0.3,0.8-1.9,5.6-1.2,9.8c0.1,0.9,0.8,4.3,0.9,5.2
			c-0.8-0.2-1.4-0.6-2.2-0.9c-0.9-0.3-1.8-0.5-2.7-0.7c-1.2-0.4-4.2-1.4-4.1-3c0.1-1.3,1.7-2.9,2.5-3.9c0.4-0.4,1-0.7,1.2-1.3
			c0.4-1.1-0.2-1.2-1.1-1.5c-0.7-0.3-2.8-0.8-2.6-1.9c0.1-0.7,0.7-1.3,1.1-1.9c0.5-0.8,1.1-1.5,1.6-2.3c0.3-0.4,0.4-0.8,0.9-0.4
			c0.3,0.2,0.7,0.4,1.1,0.5c0.9,0.3,1.9,0.3,2.8,0.1C102.3,107.3,104.9,106.2,104.9,106.3L104.9,106.3z"/>
		<path class="st3" d="M99.2,54.5c0.1,0-0.2,0.1-0.3,0.1C99,54.6,99.1,54.5,99.2,54.5C99.2,54.5,99.2,54.5,99.2,54.5L99.2,54.5
			L99.2,54.5z"/>
		<path class="st3" d="M99.1,54.5c-0.1,0-0.2,0.1-0.2,0.1l0,0C98.8,54.6,98.9,54.6,99.1,54.5L99.1,54.5z"/>
	</g>
	<path d="M64.3,121.9c0,2.1-1.7,3.8-3.8,3.8s-3.9-1.7-3.9-3.8s1.7-3.8,3.9-3.8S64.3,119.8,64.3,121.9z M57.6,121.9
		c0,1.7,1.3,3,2.9,3c1.6,0,2.9-1.3,2.9-3s-1.2-3-2.9-3S57.6,120.2,57.6,121.9L57.6,121.9z M59.9,123.8h-0.9v-3.8
		c0.3-0.1,0.8-0.1,1.4-0.1c0.7,0,1,0.1,1.3,0.3c0.2,0.2,0.4,0.4,0.4,0.8c0,0.5-0.3,0.8-0.8,0.9v0c0.4,0.1,0.5,0.4,0.7,0.9
		c0.1,0.6,0.2,0.8,0.3,0.9h-0.9c-0.1-0.1-0.2-0.5-0.3-0.9c-0.1-0.4-0.3-0.6-0.8-0.6h-0.4V123.8z M59.9,121.7h0.4
		c0.5,0,0.9-0.2,0.9-0.6c0-0.3-0.2-0.6-0.8-0.6c-0.2,0-0.4,0-0.5,0V121.7z"/>
</g>
<g>
	<path class="st4" d="M33.3,184.6c-1.1-2.3-2.5-4.2-4.2-5.9c-1.7-1.7-3.5-3.1-5.5-4.4c-2-1.3-3.8-2.5-5.5-3.7
		c-1.7-1.2-3.1-2.4-4.2-3.6c-0.9-1.1-1.5-2.3-1.6-3.6c0.2-1.4,0.8-2.5,1.8-3.3c1.2-0.9,3-1.4,5.3-1.4s4.4,0.3,6.4,0.9
		c1.7,0.5,4,1.6,4,1.6l3.9-11c-1.7-1-3.9-1.8-6.4-2.4c-2.6-0.6-5.4-0.9-8.4-0.9c-2.5,0-4.8,0.3-7,0.9s-4.1,1.6-5.6,2.9
		c-1.6,1.3-2.8,3-3.7,5.1c-0.9,2.1-1.4,4.6-1.4,7.6c0,0.3,0,0.7,0,1c0,0.2,0,0.4,0,0.6c0,3.2,0.6,6,1.7,8.2c1.1,2.2,2.5,4.2,4.2,5.8
		c1.7,1.6,3.5,3.1,5.5,4.3c2,1.2,3.8,2.4,5.5,3.6c1.7,1.2,3.1,2.4,4.2,3.8c1,1.1,1.5,2.5,1.6,4c-0.3,4-3.3,6.1-8.8,6.1
		c-2.4,0-4.6-0.4-6.6-1.1C6.6,199,4,197.8,4,197.8l-4,11.3c1.5,0.9,3.6,1.7,6.3,2.4c2.7,0.7,5.9,1.1,9.6,1.1c2.9,0,5.5-0.4,7.8-1.1
		c2.4-0.8,4.4-1.9,6-3.4s3-3.4,3.9-5.7c0.9-2.3,1.4-5,1.4-8.1c0-0.3,0-0.7,0-1c0-0.2,0-0.4,0-0.6C35,189.5,34.4,186.8,33.3,184.6
		L33.3,184.6z"/>
	<path class="st4" d="M87.2,157.1c-1.3-2.7-3-4.7-5-6.2s-4.4-2.4-7-2.9c-2.6-0.5-5.3-0.8-8-0.8c-2.5,0-5,0.1-7.6,0.4
		c-2.4,0.2-4.5,0.6-6.6,1c-1.8,0.2-3.4,0.2-4.8,0.1c-3.5-0.4-8.3-3.5-8.3-3.5l-2.4,6.5c1.8,2.3,4.3,5.2,8.2,6.4
		c1.3,0.4,3.1,0.5,4.8,0.5c0.7,0,1.4,0,2.1-0.1v52.7h11.1v-21.2c0.2,0.1,0.6,0.1,1.2,0.2c0.6,0.1,1.1,0.1,1.7,0.1c0.6,0,1.1,0,1.7,0
		h1.1c2.5,0,5-0.4,7.4-1.1s4.5-2,6.3-3.7s3.3-3.9,4.4-6.6c1.1-2.7,1.6-6,1.6-9.9c0-0.3,0-0.5,0-0.8c0-0.3,0-0.5,0-0.8
		C89.2,163.2,88.5,159.7,87.2,157.1L87.2,157.1z M71.5,178.4c-1.2,0.4-2.4,0.5-3.7,0.5c-0.3,0-1-0.1-2-0.1c-1-0.1-1.6-0.2-2-0.3V159
		c1.2-0.3,2.7-0.4,4.5-0.4c1.2,0,2.4,0.2,3.5,0.5c1.1,0.4,2.1,0.9,2.9,1.7c0.8,0.8,1.5,1.9,2,3.2c0.4,1.2,0.7,2.6,0.7,4.2
		c-0.1,1.9-0.3,3.6-0.8,4.9c-0.5,1.5-1.2,2.7-2.2,3.5C73.7,177.5,72.6,178.1,71.5,178.4L71.5,178.4z"/>
	<path class="st4" d="M169.3,198.2c0,0-2.2,1.2-3.5,1.7c-1.5,0.6-3.2,0.8-5.3,0.8c-2.4,0-4.4-0.5-6-1.6c-1.7-1.1-3.1-2.6-4.1-4.5
		s-1.9-4.2-2.4-6.9c-0.5-2.5-0.7-5.3-0.7-8.4c0.1-7,1.2-12.1,3.2-15.5c2.2-3.5,5.3-5.3,9.3-5.3c2.1,0,3.8,0.2,5.3,0.5
		c1.4,0.3,2.6,0.7,3.6,1.2l2.5-11.2c-1.4-0.6-3.1-1.1-5.2-1.6c-2.1-0.5-4.7-0.7-7.5-0.7s-5.6,0.5-8.4,1.5s-5.2,2.7-7.4,5.1
		c-2.1,2.4-3.9,5.7-5.2,9.8c-1.3,4.1-2,9.3-2,15.5c0,0.3,0,0.5,0,0.8c0,0.2,0,0.5,0,0.8c0,6,0.6,11,1.8,15.1
		c1.2,4.1,2.8,7.4,4.8,9.9c2.1,2.5,4.4,4.3,7.2,5.4s5.7,1.6,8.9,1.6c2.5,0,5.1-0.3,7.6-0.9c2.6-0.6,4.6-1.5,6.1-2.8L169.3,198.2
		L169.3,198.2z"/>
	<path class="st4" d="M222.8,192.6c0-3.1-0.6-5.8-1.7-8.1c-1.1-2.3-2.5-4.2-4.2-5.9c-1.7-1.7-3.5-3.1-5.5-4.4
		c-2-1.3-3.8-2.5-5.5-3.7c-1.7-1.2-3.1-2.4-4.2-3.6c-0.9-1.1-1.5-2.3-1.6-3.6c0.2-1.4,0.8-2.5,1.8-3.3c1.2-0.9,3-1.4,5.3-1.4
		s4.4,0.3,6.4,0.9c1.7,0.5,4.1,1.7,4.1,1.7l3.8-11.1c-1.7-1-3.9-1.8-6.4-2.4c-2.6-0.6-5.4-0.9-8.4-0.9c-2.5,0-4.8,0.3-7,0.9
		c-2.2,0.6-4.1,1.6-5.6,2.9c-1.6,1.3-2.8,3-3.8,5.1c-0.9,2.1-1.4,4.6-1.4,7.6c0,0.3,0,0.7,0,1c0,0.2,0,0.4,0,0.6
		c0,3.2,0.6,6,1.7,8.2c1.1,2.2,2.5,4.2,4.2,5.8c1.7,1.6,3.5,3.1,5.5,4.3c2,1.2,3.8,2.4,5.5,3.6c1.7,1.2,3.1,2.4,4.2,3.8
		c1,1.1,1.5,2.5,1.6,4c-0.3,4-3.3,6.1-8.8,6.1c-2.4,0-4.6-0.4-6.6-1.1c-1.8-0.6-4.4-1.8-4.4-1.8l-4.1,11.3c1.5,0.9,3.6,1.7,6.3,2.4
		s5.9,1.1,9.6,1.1c2.9,0,5.5-0.4,7.8-1.1c2.4-0.8,4.4-1.9,6-3.4c1.7-1.5,3-3.4,3.9-5.7c0.9-2.3,1.4-5,1.4-8.1c0-0.3,0-0.7,0-1
		C222.8,193,222.8,192.8,222.8,192.6L222.8,192.6z"/>
	<polygon class="st4" points="108,185.2 125.9,185.2 125.9,183.6 125.9,175 125.9,173.4 108,173.4 108,159.8 127.8,159.8 
		127.8,158.3 127.8,149.6 127.8,148 96.9,148 96.9,149.6 96.9,209.7 96.9,211.3 128.1,211.3 128.1,209.7 128.1,201.1 128.1,199.5 
		108,199.5 	"/>
	<path class="st4" d="M189.5,140.1c0-0.3,0-0.6,0-0.9c0-0.2,0-0.5,0-0.7c0-2.4-0.5-4.2-1.6-5.5c-1.1-1.3-2.6-2-4.4-2
		c-1.5,0-2.8,0.5-3.8,1.6c-1,1.1-1.5,2.4-1.5,4.1c0,0.3,0,0.6,0,0.9c0,0.2,0,0.5,0,0.7c0,1.9,0.4,3.3,1.3,4.2
		c0.8,0.8,1.6,1.3,2.5,1.4c-0.2,0.7-0.6,1.4-1,1.9c-0.8,0.9-1.6,1.6-2.6,2.1l2.6,6c0.7-0.3,1.6-0.8,2.6-1.4c1-0.6,1.9-1.5,2.9-2.6
		c0.9-1.1,1.7-2.4,2.3-4S189.5,142.4,189.5,140.1L189.5,140.1z"/>
	<path class="st4" d="M231,153c0,2.1-1.7,3.8-3.8,3.8s-3.9-1.7-3.9-3.8s1.7-3.8,3.9-3.8S231,150.9,231,153L231,153z M224.3,153
		c0,1.7,1.3,3,2.9,3c1.6,0,2.9-1.3,2.9-3s-1.2-3-2.9-3S224.3,151.4,224.3,153L224.3,153z M226.6,155h-0.9v-3.8
		c0.3-0.1,0.8-0.1,1.4-0.1c0.7,0,1,0.1,1.3,0.3c0.2,0.2,0.4,0.4,0.4,0.8c0,0.5-0.3,0.8-0.8,0.9v0c0.4,0.1,0.6,0.4,0.7,0.9
		c0.1,0.6,0.2,0.8,0.3,0.9h-0.9c-0.1-0.1-0.2-0.5-0.3-0.9c-0.1-0.4-0.3-0.6-0.8-0.6h-0.4V155z M226.6,152.9h0.4
		c0.5,0,0.9-0.2,0.9-0.6c0-0.3-0.2-0.6-0.8-0.6c-0.2,0-0.4,0-0.5,0V152.9L226.6,152.9z"/>
</g>
<g>
	<path class="st0" d="M15.2,232h-2.1l-1.8-8.5L9.6,232h-2L5,220.6h2.1l1.6,8.6l1.8-8.6h1.8l1.8,8.5l1.6-8.5h2L15.2,232L15.2,232z"/>
	<path class="st0" d="M19.2,232v-11.4h2V232H19.2z"/>
	<path class="st0" d="M30,232l-4.6-8.1v8.1h-2v-11.4h2.1l4.6,8.1v-8.1h2V232C32.1,232,30,232,30,232z"/>
	<path class="st0" d="M34.1,232v-11.4h7.2v1.8h-5.2v2.7h4v1.8h-4v3.2h5.5v1.8L34.1,232L34.1,232z"/>
	<path class="st0" d="M46.1,232.2c-1.7,0-2.9-0.6-3.9-2.1l1.3-1.4c0.7,1.1,1.5,1.6,2.7,1.6s1.9-0.6,1.9-1.5s-0.9-1.4-2.3-1.9
		c-2.4-0.7-3.4-1.6-3.4-3.4c0-2.3,1.9-3.3,3.8-3.3s2.9,0.8,3.8,1.8l-1.3,1.5c-0.8-0.9-1.5-1.4-2.7-1.4c-1,0-1.7,0.4-1.7,1.3
		s0.6,1.2,1.9,1.5c2.4,0.7,3.9,1.7,3.9,3.8S48.8,232.2,46.1,232.2L46.1,232.2z"/>
	<path class="st0" d="M57.4,227.7c-1,0-1.8-0.9-1.8-2s0.8-2.1,1.8-2.1s1.8,0.9,1.8,2.1S58.4,227.7,57.4,227.7z"/>
	<path class="st0" d="M68.8,232.2c-1.7,0-2.9-0.6-3.9-2.1l1.3-1.4c0.7,1.1,1.5,1.6,2.7,1.6s1.9-0.6,1.9-1.5s-0.9-1.4-2.3-1.9
		c-2.4-0.7-3.4-1.6-3.4-3.4c0-2.3,1.9-3.3,3.8-3.3s2.9,0.8,3.8,1.8l-1.3,1.5c-0.8-0.9-1.5-1.4-2.7-1.4c-1,0-1.7,0.4-1.7,1.3
		s0.6,1.2,1.9,1.5c2.4,0.7,3.9,1.7,3.9,3.8S71.4,232.2,68.8,232.2L68.8,232.2z"/>
	<path class="st0" d="M78.8,227.7h-2.4v4.3h-2.1v-11.4h4.4c2.2,0,3.8,0.8,3.8,3.5S80.9,227.7,78.8,227.7z M80.6,224.1
		c0-1.5-1-1.8-2.1-1.8h-2.1v3.6h2.2C79.7,225.9,80.6,225.5,80.6,224.1L80.6,224.1L80.6,224.1z"/>
	<path class="st0" d="M83.9,232v-11.4H86V232H83.9z"/>
	<path class="st0" d="M94.1,232l-2.3-4.4h-1.7v4.4H88v-11.4h4.5c2,0,3.7,0.9,3.7,3.5c0,1.8-0.9,2.8-2.3,3.2l2.5,4.7L94.1,232
		L94.1,232z M92.3,222.3h-2.2v3.5h2.1c1,0,2-0.2,2-1.7C94.2,222.6,93.3,222.3,92.3,222.3L92.3,222.3z"/>
	<path class="st0" d="M97.8,232v-11.4h2.1V232H97.8z"/>
	<path class="st0" d="M106.2,222.4v9.6h-2.1v-9.6h-2.9v-1.8h7.9v1.8L106.2,222.4L106.2,222.4z"/>
	<path class="st0" d="M113.5,232.2c-1.7,0-2.9-0.6-3.9-2.1l1.3-1.4c0.7,1.1,1.5,1.6,2.7,1.6s1.9-0.6,1.9-1.5s-0.9-1.4-2.3-1.9
		c-2.4-0.7-3.4-1.6-3.4-3.4c0-2.3,1.9-3.3,3.8-3.3s2.9,0.8,3.8,1.8l-1.3,1.5c-0.7-0.9-1.5-1.4-2.7-1.4c-1,0-1.7,0.4-1.7,1.3
		s0.6,1.2,1.9,1.5c2.4,0.7,3.9,1.7,3.9,3.8S116.1,232.2,113.5,232.2L113.5,232.2z"/>
	<path class="st0" d="M124.8,227.7c-1,0-1.8-0.9-1.8-2s0.8-2.1,1.8-2.1s1.8,0.9,1.8,2.1S125.8,227.7,124.8,227.7z"/>
	<path class="st0" d="M134.5,222.4v2.8h3.9v1.8h-3.9v4.9h-2.1v-11.4h7.3v1.8H134.5z"/>
	<path class="st0" d="M141,232v-11.4h2.1V232H141z"/>
	<path class="st0" d="M151.8,232l-4.6-8.1v8.1h-2.1v-11.4h2.1l4.6,8.1v-8.1h2.1V232H151.8z"/>
	<path class="st0" d="M155.9,232v-11.4h7.2v1.8H158v2.7h3.9v1.8H158v3.2h5.5v1.8L155.9,232L155.9,232z"/>
	<path class="st0" d="M171,232l-2.3-4.4h-1.7v4.4h-2.1v-11.4h4.5c2,0,3.7,0.9,3.7,3.5c0,1.8-0.9,2.8-2.4,3.2l2.5,4.7L171,232
		L171,232z M169.1,222.3h-2.2v3.5h2.1c1,0,2-0.2,2-1.7C171.1,222.6,170.2,222.3,169.1,222.3L169.1,222.3z"/>
	<path class="st0" d="M180.8,222.4v2.8h3.9v1.8h-3.9v4.9h-2.1v-11.4h7.3v1.8H180.8z"/>
	<path class="st0" d="M190.9,232.2c-3.3,0-4.7-2.9-4.7-6c0-3.4,1.7-6,4.8-6c3.2,0,4.7,2.8,4.7,5.9
		C195.6,229.4,194.1,232.2,190.9,232.2L190.9,232.2z M190.9,222.2c-1.7,0-2.6,1.7-2.6,4s0.9,4,2.7,4s2.6-2.1,2.6-4.1
		S192.7,222.2,190.9,222.2L190.9,222.2z"/>
	<path class="st0" d="M201.8,232.2c-3.3,0-4.7-2.9-4.7-6c0-3.4,1.7-6,4.8-6c3.2,0,4.7,2.8,4.7,5.9
		C206.6,229.4,205,232.2,201.8,232.2L201.8,232.2z M201.8,222.2c-1.7,0-2.6,1.7-2.6,4s0.9,4,2.7,4s2.6-2.1,2.6-4.1
		S203.7,222.2,201.8,222.2L201.8,222.2z"/>
	<path class="st0" d="M211.8,232h-3.5v-11.4h3.4c3.3,0,5.2,1.6,5.2,5.6S215.1,232,211.8,232L211.8,232z M211.8,222.4h-1.4v7.7h1.4
		c2.2,0,3.1-1.3,3.1-3.9S214,222.4,211.8,222.4L211.8,222.4z"/>
	<path class="st0" d="M222,232.2c-1.7,0-2.9-0.6-3.9-2.1l1.3-1.4c0.7,1.1,1.5,1.6,2.7,1.6s1.9-0.6,1.9-1.5s-0.9-1.4-2.3-1.9
		c-2.4-0.7-3.4-1.6-3.4-3.4c0-2.3,1.9-3.3,3.8-3.3s2.9,0.8,3.9,1.8l-1.3,1.5c-0.8-0.9-1.5-1.4-2.7-1.4c-1,0-1.7,0.4-1.7,1.3
		s0.6,1.2,1.9,1.5c2.4,0.7,3.9,1.7,3.9,3.8S224.6,232.2,222,232.2L222,232.2z"/>
</g>
<g>
	<g class="st5">
		<path class="st4" d="M42.4,260.2c0.7,1.9-1.1,4.1-2.3,5c-2,1.5-4.5,1.4-6,0.6c-1.3-0.7-2.4-2.5-2.5-4.8c-0.1-6.1,5-11.3,8.3-12.6
			c1.6-0.6,3-0.7,3.9,0.1c0.6,0.5,1.3,1.4,1.5,2.1c0.3,0.8,0.2,1.6-0.3,2.5c-0.4,0.9-0.8,2-1.2,2.9c-0.1,0.2-0.3,0.4-0.6,0.2
			c-0.7-0.4-1.1-1.3-0.7-2.8c0.5-1.5,1.5-3.2,0.8-3.9c-0.8-0.9-5.2,1.5-7.8,5.8c-2.5,4.2-2.3,8.5-0.8,9.6c1.8,1.5,4.9-0.4,7.1-4.7
			C41.9,259.9,42.2,259.9,42.4,260.2z"/>
		<path class="st4" d="M51.1,266.6c-2.4,0-3-1.8-2.2-4.3c1-2.8,3.5-5.8,3-6.1c-0.4-0.2-3.5,1.7-5.2,4.5c-1,1.7-2.1,3.7-2.8,5.5
			c-0.1,0.3-0.3,0.3-0.5,0.1c-0.5-0.5-0.7-1.3-0.1-3.1c1-2.9,7-13,9.3-16c0.3-0.3,0.5-0.3,0.7,0c0.4,0.8,0.3,2.3-0.8,4.1
			c-0.7,1.2-2.2,3.5-3.5,5.4c1.2-1.2,2.7-2.1,3.5-2c1,0.1,1.9,1.6,1.1,3c-0.6,1.3-2,3.4-2.7,4.9c-0.7,1.7-0.6,3,0.5,3
			c1.2-0.1,2.8-2.1,3.7-4c0.1-0.3,0.4-0.3,0.5,0c0.1,0.3,0.1,0.9-0.3,1.8C54.6,265.1,52.8,266.6,51.1,266.6z"/>
		<path class="st4" d="M58.7,265.7c2.4,0.1,4.5-2.2,5.7-4.1c0.1-0.2,0.4-0.2,0.5,0c0.1,0.2,0,1-0.5,1.8c-1.2,1.8-3.4,3.1-5.7,3.1
			c-3.7,0.1-4.9-3.5-3.1-7.3c1.9-3.7,4.8-5.2,6.3-4.4c0.7,0.4,1.2,0.9,1.7,1.5c0.5,0.7,0.3,2.5-0.9,3.9c-1.4,1.7-3.3,2.5-5.4,0.8
			C56.5,263.8,57.2,265.7,58.7,265.7z M61.1,259.1c0.9-1.2,1.6-2.7,1.2-3c-0.6-0.5-3,1.2-4.4,4c-0.1,0.2-0.2,0.3-0.2,0.5
			C59.1,261.4,60.3,260.2,61.1,259.1z"/>
	</g>
	<g class="st5">
		<path class="st4" d="M79.2,266.6c-2.2-0.1-3.1-2.1-2.3-4.4c0.6-1.9,2.3-4.1,3.6-5.5c-1.3,0.8-2.6,1.1-3.5,1.1
			c-2.4,5-5.5,8.7-8.9,8.7c-3.7,0.1-4.9-3.5-3-7.2c1.8-3.6,4.8-5.2,6.2-4.4c0.7,0.4,1.2,0.8,1.7,1.5c0.5,0.7,0.2,2.4-1,3.9
			c-1.4,1.8-3.3,2.5-5.3,0.9c-0.9,2.6-0.2,4.5,1.3,4.6c3.2,0.1,6.3-4.4,7.9-8.1c-2.2-0.9,0.6-4.8,1.8-4.8c0.9,0,0.6,1.7-0.1,3.6
			c1-0.1,2-0.6,3.1-1.4c0.3-0.2,0.6-0.4,0.8-0.1c0.6,0.6,1.3,2,0.4,3c-1.4,1.5-2.8,3.5-3.3,5c-0.5,1.6-0.1,2.7,0.7,2.8
			c1.2,0.1,2.7-1.8,3.6-4c0.1-0.2,0.3-0.3,0.4,0c0.1,0.3,0.2,1.1-0.1,1.9C82.5,265.3,80.8,266.6,79.2,266.6z M70.3,259.1
			c0.9-1.2,1.5-2.7,1.2-3c-0.6-0.5-3,1.3-4.3,3.9c-0.1,0.1-0.1,0.3-0.2,0.5C68.3,261.4,69.4,260.2,70.3,259.1z"/>
	</g>
	<g class="st5">
		<path class="st4" d="M87.2,256.4c0.1-1.1,0.4-1.7,1-2.2c0.6-0.6,1.3-0.7,1.6-0.4c0.3,0.3,0.1,0.6-0.2,1.3
			c-0.1,0.2-0.2,0.3-0.3,0.5c-0.2,2.7,0.3,4.9,0.3,6.9c-0.1,1.1-0.3,2.3-1.3,3c1.9-0.7,3.1-2.5,3.9-4c0.1-0.3,0.4-0.2,0.5,0
			c0.1,0.3,0.1,1-0.4,1.9c-1.1,2-3.1,3.1-5.1,3.2c-1.7,0.1-3.3-0.4-4.3-2.2c-0.7-1.3-0.6-3.2,0.4-4c0.3-0.3,0.6-0.2,0.6,0.3
			c0,0.2,0,0.5,0.1,0.7C85,259.8,86.3,257.9,87.2,256.4z M84.1,262.9c0.4,1.7,1.3,2.9,2.2,2.6c1.3-0.4,0.9-4.9,0.8-7.2
			C86.3,259.8,85.2,261.4,84.1,262.9z"/>
		<path class="st4" d="M99.5,254.1c-0.3-0.4-0.1-0.6,0.3-0.6c0.8,0,1.6,0,2.4-0.1c0.9-1.6,1.7-2.9,2.2-3.6c0.3-0.4,0.5-0.3,0.7,0
			c0.3,0.8,0.3,1.8-0.4,3.3c1.1,0,1.6,0.5,1.8,0.9c0.2,0.3,0.1,0.5-0.3,0.5c-0.6-0.1-1.5,0-2.3,0.1c-1.1,1.9-2.8,4.7-3.9,7.2
			c-1,2.1-0.6,3.9,0.6,4c1.3,0.1,2.9-2,4-4.2c0.2-0.3,0.5-0.4,0.6,0c0.1,0.5,0,1-0.3,1.6c-0.4,0.8-2.3,3.4-4.6,3.3
			c-1.9-0.1-3.4-2.2-2-5.5c0.6-1.4,1.8-3.9,3.1-6.1C100.4,254.9,99.8,254.5,99.5,254.1z"/>
		<path class="st4" d="M113.1,260.3c-0.6,2.5-2.4,5.4-4.6,6.1c-1,0.3-2.5,0.2-3.6-1.3c-1.3-1.7-0.8-4.2,0.5-6.5
			c1.1-2,2.9-3.6,4.6-3.8c0.9-0.1,1.4,0.2,2,1c0.7,0.9,1.5,1.1,1.4,3.2c0,0.2,0,0.4-0.1,0.7c0.2,0,0.3-0.1,0.6-0.1
			c0.2,0,0.2,0.1,0.1,0.3C113.6,260.1,113.4,260.3,113.1,260.3z M110.6,259.6c-0.6-0.5-1.3-1.5-1.3-2.5c-0.8,0.7-1.6,1.6-2.2,2.7
			c-1.2,2.2-1.6,4.8-0.9,5.5c0.8,0.7,2.6-0.3,4-3c0.4-0.8,0.8-1.6,1-2.3C111,259.8,110.8,259.7,110.6,259.6z M111.6,257
			c-0.1-0.9-0.7-0.8-0.9,0.1c-0.1,0.8,0.2,1.6,0.6,2C111.6,258.2,111.7,257.5,111.6,257z"/>
	</g>
	<g class="st5">
		<path class="st4" d="M121.9,262.9c1.2,0.9,3.1,2.4,5,2.4c0.8,0,1.4-0.2,1.8-0.5c0.5-0.5,0.3-1.2-0.1-1.5c-1.5-1.3-6.1-3.1-6.1-6.1
			c0-4,4.5-7.3,7-8.4c1.4-0.6,2.8-0.8,3.7,0.1c0.7,0.7,1.2,1.6,1.4,2.4c0.3,1.2-0.4,2.3-0.8,2.9c-0.8,1-1.6,2.5-2,3.2
			c-0.1,0.3-0.3,0.4-0.6,0.1c-0.5-0.5-0.9-1.4-0.3-2.8c0.6-1.4,2.8-3.8,2.1-4.5c-1-1-8.1,3.4-8.2,7c-0.1,1.9,3.6,3.4,5.2,4.6
			c1.1,0.8,1,2.1-0.3,3.6c-1.7,2-6.8,2.5-10.8-2.4c-0.3-0.4-0.2-0.6,0.1-0.7C119.9,262,121.1,262.2,121.9,262.9z"/>
	</g>
	<g class="st5">
		<path class="st4" d="M142.7,255c0.3-0.4,0.5-0.4,0.7-0.2c0.4,0.5,0.7,1.8,0,3.2c-0.6,1.3-2.1,3.5-2.8,5c-0.7,1.6-0.8,2.9,0.2,2.8
			c1.2-0.1,2.8-2,3.8-4c0.1-0.3,0.3-0.3,0.5,0s0.1,1-0.3,1.8c-0.8,1.6-2.6,3.2-4.2,3.1c-1.6-0.1-2.4-1-2.4-2.4
			c-0.9,1.2-2.2,2.3-3.6,2.3c-2.7,0-3.2-3.7-0.8-7.2c2.3-3.4,4.6-4.7,6.1-4.7c1.2,0,1.8,1,1.8,2.1C142,256,142.4,255.4,142.7,255z
			 M140.4,256.2c-0.9-0.1-3,1.8-4.6,4.4c-1.5,2.5-1.9,5-0.8,5c1.2,0,2.7-1.8,4.2-4.4C141,258,141.2,256.3,140.4,256.2z"/>
	</g>
	<g class="st5">
		<path class="st4" d="M153.9,254.8c0.3-0.3,0.5-0.3,0.5,0.1c0.1,0.6-0.3,1.4-1.2,2.5c-1.4,1.8-4.1,4.6-6.8,9
			c-0.1,0.2-0.3,0.4-0.6,0.3c-1.1-0.5-1.5-1.1-1.4-2.7c0.1-2,0.9-6.1,1.9-9.1c0.1-0.3,0.3-0.4,0.6-0.2c1,0.8,1.1,1.9,0.7,3.6
			c-0.5,2.2-1.1,3.8-1.5,7C148.1,261.9,151.9,256.8,153.9,254.8z"/>
	</g>
	<g class="st5">
		<path class="st4" d="M152.3,262.3c0.7-2.1,2.6-5.5,3.7-7c0.3-0.3,0.5-0.4,0.7-0.2c0.4,0.5,0.7,1.7,0,3.1c-0.6,1.3-1.8,3.2-2.4,4.7
			c-0.7,1.7-0.6,2.8,0.3,2.7c1.3-0.1,2.9-2,3.8-4c0.1-0.3,0.3-0.2,0.5,0c0.2,0.5,0.1,1.1-0.2,1.8c-0.9,1.8-2.7,3-4.3,3
			C152.1,266.6,151.5,264.7,152.3,262.3z M158.8,254.8c-0.4,0.4-1.2,0.3-1.6-0.4c-0.5-0.8-0.3-1.6,0.1-2.1c0.5-0.5,1.3-0.1,1.7,0.6
			C159.3,253.6,159.1,254.4,158.8,254.8z"/>
	</g>
	<g class="st5">
		<path class="st4" d="M166.9,254.8c1,0.1,1.8,1.6,1.1,3.1c-0.6,1.3-2,3.4-2.7,4.9c-0.8,1.7-0.6,3,0.5,3c1.2-0.1,2.6-2,3.7-4
			c0.1-0.3,0.3-0.3,0.5,0c0.2,0.3,0.1,1-0.3,1.8c-0.8,1.6-2.6,3.1-4.3,3.1c-2.5,0-3-1.8-2.2-4.3c1-2.8,3.5-5.9,3-6.1
			c-0.3-0.1-2,0.7-3.8,2.7c-1.7,1.8-3,4.6-4.2,7.3c-0.1,0.3-0.3,0.4-0.5,0.1c-0.6-0.6-0.8-1.5-0.3-3c0.6-1.8,2.8-5.8,4.6-8.5
			c0.2-0.3,0.4-0.3,0.6,0c0.4,0.7,0.4,1.7,0.1,2.7C164,256.3,165.9,254.7,166.9,254.8z"/>
	</g>
	<g class="st5">
		<path class="st4" d="M175.5,267.3c-1.6,3.9-3.6,8.5-6,9.4c-0.6,0.2-1.2,0.1-1.7-0.6c-0.6-0.9-1.1-1.9-0.6-3.6
			c0.8-2.6,3.3-4.4,6.2-5.5c0.3-0.6,0.5-1.3,0.8-2c-0.8,0.8-1.8,1.4-2.9,1.4c-2.7,0-3.2-3.6-0.8-7.1c2.2-3.3,4.6-4.6,6.1-4.6
			c1.2,0,1.7,0.9,1.7,1.9c0.3-0.6,0.7-1.1,1-1.6c0.2-0.4,0.5-0.4,0.7-0.2c0.4,0.5,0.7,1.8-0.1,3.2c-0.9,1.7-2.7,5.2-3.9,8
			c2.4-1.2,4-2.8,5.2-4.3c0.2-0.2,0.4-0.2,0.5,0.1c0.1,0.3-0.1,0.9-0.6,1.7C179.9,265.3,177.9,266.4,175.5,267.3z M168.4,275.1
			c0.4,0.5,2.7-2.5,4.5-6.8C169.2,270.4,167.9,274.4,168.4,275.1z M177,256.3c-0.9-0.1-3,1.8-4.6,4.3c-1.6,2.5-1.9,5-0.7,5
			c1.1,0,2.6-1.8,4.1-4.3C177.6,258.1,177.8,256.3,177,256.3z"/>
	</g>
	<g class="st5">
		<path class="st4" d="M185,256.4c0.1-1.1,0.4-1.7,1-2.2c0.6-0.6,1.3-0.7,1.6-0.4c0.3,0.3,0.1,0.6-0.2,1.3c-0.1,0.2-0.2,0.3-0.3,0.5
			c-0.2,2.7,0.3,4.9,0.3,6.9c-0.1,1.1-0.3,2.3-1.3,3c1.9-0.7,3.1-2.5,3.9-4c0.1-0.3,0.4-0.2,0.5,0c0.1,0.3,0.1,1-0.4,1.9
			c-1.1,2-3.1,3.1-5.1,3.2c-1.7,0.1-3.3-0.4-4.3-2.2c-0.7-1.3-0.6-3.2,0.4-4c0.3-0.3,0.6-0.2,0.6,0.3c0,0.2,0,0.5,0.1,0.7
			C182.8,259.8,184.1,257.9,185,256.4z M181.9,262.9c0.4,1.7,1.3,2.9,2.2,2.6c1.3-0.4,0.9-4.9,0.8-7.2
			C184.1,259.8,183,261.4,181.9,262.9z"/>
		<path class="st4" d="M192.8,266.5c-0.3,0.4-1.2,0.3-1.6-0.4c-0.5-0.8-0.3-1.6,0.1-2.1c0.4-0.5,1.3-0.1,1.6,0.7
			C193.3,265.3,193.1,266.1,192.8,266.5z M200.2,248.4c0.4,0.8,0.3,2.2-0.9,4.4c-1.6,2.9-4,7.4-5.5,10.6c-0.1,0.3-0.3,0.3-0.5,0.1
			c-0.4-0.5-0.7-1.4-0.1-3.1c1.2-3.1,4-8.8,6.2-12C199.7,248,200.1,248,200.2,248.4z"/>
	</g>
	<path class="st4" d="M210.8,250c0,2.1-1.7,3.8-3.8,3.8s-3.9-1.7-3.9-3.8s1.7-3.8,3.9-3.8S210.8,247.9,210.8,250L210.8,250z
		 M204.1,250c0,1.7,1.3,3,2.9,3c1.6,0,2.9-1.3,2.9-3s-1.2-3-2.9-3S204.1,248.4,204.1,250L204.1,250z M206.4,252h-0.9v-3.8
		c0.3-0.1,0.8-0.1,1.4-0.1c0.7,0,1,0.1,1.3,0.3c0.2,0.2,0.4,0.4,0.4,0.8c0,0.5-0.3,0.8-0.8,0.9v0c0.4,0.1,0.6,0.4,0.7,0.9
		c0.1,0.6,0.2,0.8,0.3,0.9h-0.9c-0.1-0.1-0.2-0.5-0.3-0.9c-0.1-0.4-0.3-0.6-0.8-0.6h-0.4V252z M206.4,249.9h0.4
		c0.5,0,0.9-0.2,0.9-0.6c0-0.3-0.2-0.6-0.8-0.6c-0.2,0-0.4,0-0.5,0V249.9L206.4,249.9z"/>
</g>
</svg>
