<svg id="Layer_1" data-name="Layer 1" xmlns="http://www.w3.org/2000/svg" viewBox="0 0 199.85 22.24"><defs><style>.cls-1{fill:#333;}.cls-2{fill:#ad0001;}.cls-3{fill:none;stroke:#333;stroke-miterlimit:10;}</style></defs><path class="cls-1" d="M52,290.32a11.63,11.63,0,0,1-4.7-.87,12.94,12.94,0,0,1-3.59-2.37l3.24-3.79a11.57,11.57,0,0,0,2.45,1.63,5.64,5.64,0,0,0,2.51.59,3.47,3.47,0,0,0,2.2-.64,2.13,2.13,0,0,0,.8-1.75v-.06a2,2,0,0,0-.83-1.74,3.49,3.49,0,0,0-2.17-.63,5,5,0,0,0-1.74.3,8.24,8.24,0,0,0-1.53.73l-3.35-1.87.58-10.36H59.51v4.67H50.32l-.17,3.09a8.82,8.82,0,0,1,1.47-.52,6.87,6.87,0,0,1,1.79-.21,8.57,8.57,0,0,1,2.64.4,6.49,6.49,0,0,1,2.24,1.18,5.77,5.77,0,0,1,1.54,2,6.65,6.65,0,0,1,.59,2.89v.06a7.12,7.12,0,0,1-.63,3.06,6.64,6.64,0,0,1-1.74,2.28,7.93,7.93,0,0,1-2.65,1.43,11.15,11.15,0,0,1-3.41.49" transform="translate(-43.7 -268.59)"/><path class="cls-1" d="M72.14,290.32a9.14,9.14,0,0,1-3.94-.83,8.62,8.62,0,0,1-3-2.28,10.17,10.17,0,0,1-1.86-3.36,12.57,12.57,0,0,1-.66-4.09v-.06a12.41,12.41,0,0,1,.67-4.1,10.44,10.44,0,0,1,1.9-3.38,8.84,8.84,0,0,1,3-2.29,9,9,0,0,1,3.94-.85,8.85,8.85,0,0,1,3.92.84,8.72,8.72,0,0,1,3,2.27A10.29,10.29,0,0,1,81,275.56a12.77,12.77,0,0,1,.65,4.08v.06a12.9,12.9,0,0,1-.65,4.1,10,10,0,0,1-1.9,3.38,9,9,0,0,1-3,2.29,8.87,8.87,0,0,1-3.94.85m.06-5a3.06,3.06,0,0,0,1.55-.4,3.62,3.62,0,0,0,1.18-1.16,5.81,5.81,0,0,0,.74-1.75,8.59,8.59,0,0,0,.26-2.23v-.06a8.76,8.76,0,0,0-.27-2.24,6.24,6.24,0,0,0-.78-1.77,3.86,3.86,0,0,0-1.19-1.16,2.9,2.9,0,0,0-1.55-.43,3,3,0,0,0-1.53.41,3.65,3.65,0,0,0-1.18,1.14,5.39,5.39,0,0,0-.76,1.75,8.77,8.77,0,0,0-.26,2.24v.06a8.92,8.92,0,0,0,.27,2.26,6.06,6.06,0,0,0,.78,1.78,3.75,3.75,0,0,0,1.19,1.16,3.06,3.06,0,0,0,1.55.4" transform="translate(-43.7 -268.59)"/><path class="cls-1" d="M94.46,290.32a10.72,10.72,0,0,1-4.12-.79,10.12,10.12,0,0,1-3.34-2.2,10.61,10.61,0,0,1-3.07-7.57v-.06a10.63,10.63,0,0,1,.81-4.15A10.79,10.79,0,0,1,87,272.16a10.27,10.27,0,0,1,3.4-2.26,11.16,11.16,0,0,1,4.3-.81,12.62,12.62,0,0,1,2.86.3,10.11,10.11,0,0,1,2.35.88,9.45,9.45,0,0,1,1.92,1.35,10.77,10.77,0,0,1,1.53,1.72l-4.26,3.3a7.31,7.31,0,0,0-1.92-1.75,4.77,4.77,0,0,0-2.54-.64,4.58,4.58,0,0,0-2,.42,4.82,4.82,0,0,0-1.53,1.15,5.54,5.54,0,0,0-1,1.72,6.14,6.14,0,0,0-.36,2.1v.06a6.34,6.34,0,0,0,.36,2.15,5.37,5.37,0,0,0,1,1.73,4.67,4.67,0,0,0,1.53,1.15,4.44,4.44,0,0,0,2,.43,5.48,5.48,0,0,0,1.45-.18,4.08,4.08,0,0,0,1.19-.51,5.82,5.82,0,0,0,1-.79,11.44,11.44,0,0,0,.95-1l4.26,3a15.68,15.68,0,0,1-1.59,1.84,9.46,9.46,0,0,1-2,1.46,10,10,0,0,1-2.46,1,12.33,12.33,0,0,1-3,.35" transform="translate(-43.7 -268.59)"/><polygon class="cls-1" points="62.22 0.91 78.61 0.91 78.61 5.72 67.79 5.72 67.79 8.81 77.59 8.81 77.59 13.28 67.79 13.28 67.79 16.51 78.76 16.51 78.76 21.33 62.22 21.33 62.22 0.91"/><polygon class="cls-1" points="81.68 0.91 86.97 0.91 95.39 11.7 95.39 0.91 100.96 0.91 100.96 21.33 95.99 21.33 87.25 10.13 87.25 21.33 81.68 21.33 81.68 0.91"/><polygon class="cls-1" points="109.56 5.87 103.44 5.87 103.44 0.91 121.35 0.91 121.35 5.87 115.22 5.87 115.22 21.33 109.56 21.33 109.56 5.87"/><rect class="cls-2" x="123.27" y="15.64" width="5.78" height="5.69"/><path class="cls-3" d="M185.64,290.32a10.63,10.63,0,0,1-4.11-.79,10,10,0,0,1-3.34-2.2,10.56,10.56,0,0,1-3.08-7.57v-.06a10.68,10.68,0,0,1,3.07-7.54,10.33,10.33,0,0,1,3.39-2.26,11.25,11.25,0,0,1,4.31-.81,12.47,12.47,0,0,1,2.85.3,9.94,9.94,0,0,1,2.35.88,9.81,9.81,0,0,1,1.93,1.35,11.85,11.85,0,0,1,1.53,1.72l-4.26,3.3a7.31,7.31,0,0,0-1.92-1.75,4.77,4.77,0,0,0-2.54-.64,4.55,4.55,0,0,0-2,.42,4.82,4.82,0,0,0-1.53,1.15,5.35,5.35,0,0,0-1,1.72,6.14,6.14,0,0,0-.36,2.1v.06a6.34,6.34,0,0,0,.36,2.15,5.19,5.19,0,0,0,1,1.73,4.67,4.67,0,0,0,1.53,1.15,4.41,4.41,0,0,0,2,.43,5.46,5.46,0,0,0,1.44-.18,4,4,0,0,0,1.2-.51,5.82,5.82,0,0,0,1-.79,11.44,11.44,0,0,0,1-1l4.26,3a15.68,15.68,0,0,1-1.59,1.84,9.52,9.52,0,0,1-2,1.46,9.93,9.93,0,0,1-2.45,1A12.35,12.35,0,0,1,185.64,290.32Z" transform="translate(-43.7 -268.59)"/><path class="cls-3" d="M207.37,290.32a11.41,11.41,0,0,1-4.37-.83,10.74,10.74,0,0,1-3.47-2.26,10.33,10.33,0,0,1-2.29-3.36,10.13,10.13,0,0,1-.83-4.11v-.06a10.42,10.42,0,0,1,3.15-7.51,11,11,0,0,1,3.5-2.27,11.95,11.95,0,0,1,8.75,0,10.58,10.58,0,0,1,3.47,2.26,10.37,10.37,0,0,1,3.12,7.46v.06a10.43,10.43,0,0,1-.83,4.13,10.3,10.3,0,0,1-2.32,3.38,10.81,10.81,0,0,1-3.5,2.28A11.43,11.43,0,0,1,207.37,290.32Zm0-5.1a5.1,5.1,0,0,0,2.13-.44,4.93,4.93,0,0,0,1.64-1.18,5.47,5.47,0,0,0,1.05-1.74,5.68,5.68,0,0,0,.39-2.1v-.06a5.68,5.68,0,0,0-.39-2.1,5.35,5.35,0,0,0-1.08-1.75,5.42,5.42,0,0,0-1.66-1.21,5.32,5.32,0,0,0-4.26,0,5.09,5.09,0,0,0-1.64,1.18,5,5,0,0,0-1,1.73,5.91,5.91,0,0,0-.37,2.1v.06a5.88,5.88,0,0,0,.38,2.1,5.57,5.57,0,0,0,1.07,1.75,5.11,5.11,0,0,0,1.65,1.21A4.89,4.89,0,0,0,207.42,285.22Z" transform="translate(-43.7 -268.59)"/><polygon class="cls-3" points="177.65 0.91 183.63 0.91 188.5 8.81 193.37 0.91 199.35 0.91 199.35 21.33 193.72 21.33 193.72 9.6 188.51 17.59 188.4 17.59 183.22 9.66 183.22 21.33 177.65 21.33 177.65 0.91"/></svg>